<svg width="626px" height="183.28001708984374px" xmlns="http://www.w3.org/2000/svg" viewBox="-63 -16.64000854492187 626 183.28001708984374" style="background: none;" preserveAspectRatio="xMidYMid"><defs><linearGradient id="editing-rainbow-gradient" x1="0" x2="1" y1="0.5" y2="0.5" gradientUnits="objectBoundingBox"><stop offset="0.00" stop-color="#d20f39"></stop><stop offset="0.17" stop-color="#fe640b"></stop><stop offset="0.34" stop-color="#df8e1d"></stop><stop offset="0.51" stop-color="#40a02b"></stop><stop offset="0.68" stop-color="#04a5e5"></stop><stop offset="0.85" stop-color="#1e66f5"></stop><stop offset="1.00" stop-color="#7287fd"></stop></linearGradient><filter id="editing-rainbow" x="-100%" y="-100%" width="300%" height="300%"><feMorphology operator="dilate" radius="1,0" in="SourceGraphic" result="dilate"></feMorphology><feColorMatrix in="dilate" result="color" type="matrix" values="0.7 0 0 0 0  0 0.7 0 0 0  0 0 0.7 0 0  0 0 0 1 0"></feColorMatrix><feOffset dy="0" result="offset"></feOffset><feColorMatrix result="blur" type="matrix" values="0.7 0 0 0 0  0 0.7 0 0 0  0 0 0.7 0 0  0 0 0 1 0"></feColorMatrix><feMerge><feMergeNode in="blur"></feMergeNode><feMergeNode in="offset"></feMergeNode><feMergeNode in="SourceGraphic"></feMergeNode></feMerge></filter></defs><g filter="url(#editing-rainbow)"><g transform="translate(28.35000991821289, 109.00000190734863)"><path d="M34.50-12.50L34.50-12.50L34.50-18L41.50-18L41.50-12.50L41.50-12.50Q41.50-5.80 37.40-2.15L37.40-2.15L37.40-2.15Q33.30 1.50 25.10 1.50L25.10 1.50L25.10 1.50Q16.90 1.50 12.70-2.15L12.70-2.15L12.70-2.15Q8.50-5.80 8.50-12.50L8.50-12.50L8.50-52.50L8.50-52.50Q8.50-59.20 12.60-62.85L12.60-62.85L12.60-62.85Q16.70-66.50 24.90-66.50L24.90-66.50L24.90-66.50Q33.10-66.50 37.30-62.85L37.30-62.85L37.30-62.85Q41.50-59.20 41.50-52.50L41.50-52.50L41.50-30.50L15.50-30.50L15.50-12.50L15.50-12.50Q15.50-4.50 25-4.50L25-4.50L25-4.50Q34.50-4.50 34.50-12.50ZM15.50-52.50L15.50-52.50L15.50-36.50L34.50-36.50L34.50-52.50L34.50-52.50Q34.50-60.50 25-60.50L25-60.50L25-60.50Q15.50-60.50 15.50-52.50ZM67-50.50L67 0L60 0L60-65L63-65L65.50-58.50L65.50-58.50Q70.30-66.50 78.80-66.50L78.80-66.50L78.80-66.50Q93.50-66.50 93.50-52.50L93.50-52.50L93.50 0L86.50 0L86.50-52.50L86.50-52.50Q86.50-56.30 84.85-58.40L84.85-58.40L84.85-58.40Q83.20-60.50 78.80-60.50L78.80-60.50L78.80-60.50Q74.40-60.50 70.70-57.10L70.70-57.10L70.70-57.10Q67-53.70 67-50.50L67-50.50ZM119.50-65L119.50 0L112.50 0L112.50-65L119.50-65ZM164-27L152.80-27L152.80-33L171-33L171-12.50L171-12.50Q171-5.80 166.90-2.15L166.90-2.15L166.90-2.15Q162.80 1.50 154.60 1.50L154.60 1.50L154.60 1.50Q146.40 1.50 142.20-2.15L142.20-2.15L142.20-2.15Q138-5.80 138-12.50L138-12.50L138-52.50L138-52.50Q138-59.20 142.10-62.85L142.10-62.85L142.10-62.85Q146.20-66.50 154.40-66.50L154.40-66.50L154.40-66.50Q162.60-66.50 166.80-62.85L166.80-62.85L166.80-62.85Q171-59.20 171-52.50L171-52.50L171-47L164-47L164-52.50L164-52.50Q164-60.50 154.50-60.50L154.50-60.50L154.50-60.50Q145-60.50 145-52.50L145-52.50L145-12.50L145-12.50Q145-4.50 154.50-4.50L154.50-4.50L154.50-4.50Q164-4.50 164-12.50L164-12.50L164-27ZM196.50-50.80L196.50 0L189.50 0L189.50-65L192.50-65L195-58.60L195-58.60Q197.10-62.20 200.50-64.35L200.50-64.35L200.50-64.35Q203.90-66.50 207.90-66.50L207.90-66.50L207.90-66.50Q218-66.50 220.80-59.20L220.80-59.20L220.80-59.20Q225.60-66.50 233.40-66.50L233.40-66.50L233.40-66.50Q247.50-66.50 247.50-52.50L247.50-52.50L247.50 0L240.50 0L240.50-52.50L240.50-52.50Q240.50-60.50 233.30-60.50L233.30-60.50L233.30-60.50Q229.10-60.50 225.55-57.10L225.55-57.10L225.55-57.10Q222-53.70 222-50.50L222-50.50L222 0L215 0L215-52.50L215-52.50Q215-60.50 207.80-60.50L207.80-60.50L207.80-60.50Q203.60-60.50 200.05-57.25L200.05-57.25L200.05-57.25Q196.50-54 196.50-50.80L196.50-50.80ZM297.50-52.50L297.50 0L294.50 0L291.90-6.40L291.90-6.40Q289.80-2.80 286.40-0.65L286.40-0.65L286.40-0.65Q283 1.50 278.90 1.50L278.90 1.50L278.90 1.50Q264.50 1.50 264.50-12.50L264.50-12.50L264.50-22.50L264.50-22.50Q264.50-36.50 278.90-36.50L278.90-36.50L290.50-36.50L290.50-52.90L290.50-52.90Q290.50-56.50 288.20-58.50L288.20-58.50L288.20-58.50Q285.90-60.50 281.40-60.50L281.40-60.50L281.40-60.50Q272.50-60.50 272.50-52.90L272.50-52.90L272.50-47L265.50-47L265.50-52.50L265.50-52.50Q265.50-59.20 269.45-62.85L269.45-62.85L269.45-62.85Q273.40-66.50 281.40-66.50L281.40-66.50L281.40-66.50Q289.40-66.50 293.45-62.85L293.45-62.85L293.45-62.85Q297.50-59.20 297.50-52.50L297.50-52.50ZM290.50-14.20L290.50-30.50L278.90-30.50L278.90-30.50Q274.70-30.50 273.10-28.40L273.10-28.40L273.10-28.40Q271.50-26.30 271.50-22.50L271.50-22.50L271.50-12.50L271.50-12.50Q271.50-8.70 273.10-6.60L273.10-6.60L273.10-6.60Q274.70-4.50 278.90-4.50L278.90-4.50L278.90-4.50Q283.10-4.50 286.70-7.75L286.70-7.75L286.70-7.75Q290.30-11 290.50-14.20L290.50-14.20ZM341.80 0L316.50 0L316.50-65L323.50-65L323.50-6L341.80-6L341.80 0ZM378.30-12.50L378.30-12.50L378.30-18L385.30-18L385.30-12.50L385.30-12.50Q385.30-5.80 381.20-2.15L381.20-2.15L381.20-2.15Q377.10 1.50 368.90 1.50L368.90 1.50L368.90 1.50Q360.70 1.50 356.50-2.15L356.50-2.15L356.50-2.15Q352.30-5.80 352.30-12.50L352.30-12.50L352.30-52.50L352.30-52.50Q352.30-59.20 356.40-62.85L356.40-62.85L356.40-62.85Q360.50-66.50 368.70-66.50L368.70-66.50L368.70-66.50Q376.90-66.50 381.10-62.85L381.10-62.85L381.10-62.85Q385.30-59.20 385.30-52.50L385.30-52.50L385.30-30.50L359.30-30.50L359.30-12.50L359.30-12.50Q359.30-4.50 368.80-4.50L368.80-4.50L368.80-4.50Q378.30-4.50 378.30-12.50ZM359.30-52.50L359.30-52.50L359.30-36.50L378.30-36.50L378.30-52.50L378.30-52.50Q378.30-60.50 368.80-60.50L368.80-60.50L368.80-60.50Q359.30-60.50 359.30-52.50ZM434.80-52.50L434.80 0L431.80 0L429.20-6.40L429.20-6.40Q427.10-2.80 423.70-0.65L423.70-0.65L423.70-0.65Q420.30 1.50 416.20 1.50L416.20 1.50L416.20 1.50Q401.80 1.50 401.80-12.50L401.80-12.50L401.80-22.50L401.80-22.50Q401.80-36.50 416.20-36.50L416.20-36.50L427.80-36.50L427.80-52.90L427.80-52.90Q427.80-56.50 425.50-58.50L425.50-58.50L425.50-58.50Q423.20-60.50 418.70-60.50L418.70-60.50L418.70-60.50Q409.80-60.50 409.80-52.90L409.80-52.90L409.80-47L402.80-47L402.80-52.50L402.80-52.50Q402.80-59.20 406.75-62.85L406.75-62.85L406.75-62.85Q410.70-66.50 418.70-66.50L418.70-66.50L418.70-66.50Q426.70-66.50 430.75-62.85L430.75-62.85L430.75-62.85Q434.80-59.20 434.80-52.50L434.80-52.50ZM427.80-14.20L427.80-30.50L416.20-30.50L416.20-30.50Q412-30.50 410.40-28.40L410.40-28.40L410.40-28.40Q408.80-26.30 408.80-22.50L408.80-22.50L408.80-12.50L408.80-12.50Q408.80-8.70 410.40-6.60L410.40-6.60L410.40-6.60Q412-4.50 416.20-4.50L416.20-4.50L416.20-4.50Q420.40-4.50 424-7.75L424-7.75L424-7.75Q427.60-11 427.80-14.20L427.80-14.20Z" fill="url(#editing-rainbow-gradient)"></path></g></g></svg>